# xmcd
#
# Track frame offsets:
#	150
#	18073
#	33853
#	53608
#	70910
#	88259
#	105201
#	125893
#	141285
#	157496
#	174616
#	188033
#	201742
#	226215
#
# Disc length: 3295 seconds
#
# Revision: 1
# Processed by: cddbd v1.5.2PL0 Copyright (c) Steve Scherf et al.
# Submitted via: audiograbber 1.83.01
#
DISCID=c40cdd0e
DTITLE=Zac Brown Band - Greatest Hits So Far...
DYEAR=2014
DGENRE=Country
TTITLE0=Chicken Fried
TTITLE1=Whatever It Is
TTITLE2=Toes
TTITLE3=Free
TTITLE4=Highway 20 Ride
TTITLE5=As She's Walking Away (Feat. Alan Jackson)
TTITLE6=Colder Weather
TTITLE7=Knee Deep (Feat. Jimmy Buffett)
TTITLE8=Keep Me In Mind
TTITLE9=No Hurry
TTITLE10=The Wind
TTITLE11=Jump Right In
TTITLE12=Goodbye In Her Eyes
TTITLE13=Sweet Annie
EXTD=
EXTT0=
EXTT1=
EXTT2=
EXTT3=
EXTT4=
EXTT5=
EXTT6=
EXTT7=
EXTT8=
EXTT9=
EXTT10=
EXTT11=
EXTT12=
EXTT13=
PLAYORDER=
